<?xml version="1.0" encoding="utf-8"?>
<!-- Generator: Adobe Illustrator 23.0.0, SVG Export Plug-In . SVG Version: 6.00 Build 0)  -->
<svg version="1.1" id="Layer_1" xmlns="http://www.w3.org/2000/svg" xmlns:xlink="http://www.w3.org/1999/xlink" x="0px" y="0px"
	 viewBox="0 0 236 708" style="enable-background:new 0 0 236 708;" xml:space="preserve">
<style type="text/css">
	.st0{fill:#BDBEC0;}
	.st1{fill:#59B656;}
	.st2{fill:#4FC1E8;}
</style>
<g>
	<path class="st0" d="M158.52,583.8c-23.51-15.68-46.54-31.06-68.93-46.98c2.17-6.28,5.85-10.27,9.17-14.58
		c10.68-13.89,21.15-27.93,31.65-41.96c2.54-3.39,5.4-2.83,8.27-0.86c11.3,7.79,22.44,15.83,33.84,23.48
		c7.97,5.34,15.93,10.66,23.75,17.03C184.69,541.44,171.29,561.84,158.52,583.8z"/>
	<path class="st0" d="M112.39,25.22c7.89-0.52,18.81,3.24,25.81,8.93c2.51,24.53,5.07,49.54,7.69,75.16
		c-5.62,6.74-11.58,13.78-16.14,21.31c-2.97,0.85-4.73-0.39-6.48-1.71c-10.84-8.19-21.46-16.7-32.64-24.4
		c-5.02-3.46-10.17-6.72-14.92-10.57c-1.04-0.84-2.16-1.55-2.73-3.36C85.99,69,99.16,47.17,112.39,25.22z"/>
	<path class="st1" d="M166.82,175.84c-14.33,19.07-28.21,37.53-42.5,56.55c-13.47-8.5-25.21-17.75-37.48-26.93
		c2.43-3.67,4.55-7.12,6.91-10.4c7.5-10.44,6.93-13.92-3.66-21.29c-1.06-0.74-2.51-1.03-3.16-2.77c5.4-13.1,14.88-24.1,21.59-37.51
		C127.9,147.56,146.97,161.42,166.82,175.84z"/>
	<path class="st0" d="M75.42,436.25c15.92,10.97,31.44,21.67,47.69,32.87c-14.94,20.46-29.7,40.08-45.28,59.94
		c-9.76-7.44-21.15-12.66-30.44-21.54c-0.75-3.2,0-6.58,0.38-10.04c0.95-8.56,1.58-17.17,2.17-25.77c0.16-2.24,0.51-4.29,1.91-6.05
		C59.51,456.09,67.18,446.53,75.42,436.25z"/>
	<path class="st0" d="M151.6,594.26c-4.39,9.13-9.1,17.46-15.15,25.21c-12.83-7.5-24-16.1-36.5-22.51c-3.52-1.81-7.11-3.69-11.17-4
		c-11.73-0.91-19.22,4.26-23.78,16.62c-1.79,4.86-4.47,9.11-7.84,13.72c-4.97-4.73-11.51-6.76-15.67-11.31
		c-1.86-9.57,1.15-16.38,7.04-23.61c5.94-7.29,12.03-14.69,17.16-22.8c4.1-6.46,9.89-11.94,14.91-19.57
		C104.15,562.02,127.52,577.9,151.6,594.26z"/>
	<path class="st0" d="M68.73,630.53c2.38-8.99,9.61-15.87,11.97-24.81c6.12-2.13,10.91,0.46,15.46,3.11
		c9.7,5.65,19.29,11.43,28.4,18.07c10.02,7.3,20.61,13.82,30.83,20.85c8.99,6.19,17.83,12.6,26.71,18.96
		c0.78,0.56,1.32,1.44,1.8,1.99c0.26,2.04-0.99,2.98-1.93,4.33c-7.19-0.3-14.28,0.27-21.44-0.79c-6.92-1.03-13.96-0.26-20.88,0.73
		c-7.14,1.02-12.62-1.73-18.24-5.85c-10.67-7.82-21.88-14.89-32.79-22.39C82.08,640.23,75.68,635.5,68.73,630.53z"/>
	<path class="st0" d="M151.34,380.96c-1.48,14.22-0.7,27.66,9.89,38.98c-9.41,9.64-15.24,21.83-25.55,31.78
		c-15.46-10.65-30.83-21.23-47.05-32.41c14.37-18.4,28.15-36.04,42.14-53.95C138.66,369.82,145.58,374.18,151.34,380.96z"/>
	<path class="st1" d="M46.22,239.12c1.32,0.63,2.22,1,3.08,1.47c6.26,3.45,11.65,1.93,15.12-4.17c1.4-2.45,2.9-4.86,4.59-7.12
		c1.39-1.85,3.13-3.43,5.36-5.82c12.04,8.69,24,17.33,36.31,26.22c-11.04,16.64-24.1,30.86-34.73,48.05
		c-15.71-10.53-29.58-22.76-45.62-33.08C35.96,255.95,39.34,246.55,46.22,239.12z"/>
	<path class="st0" d="M205.79,144.89c1.66-1.75,3.33-3.5,5.85-6.15c9.81,26.7,19.23,52.16,18.98,79.63
		c-15.21,19.27-30.32,38.41-45.66,57.83c-4.82-1.85-8.25-5.44-12.05-8.48c0.77-4.5,3.09-8.43,5.26-12.25
		c15.14-26.52,24.34-54.88,27.51-85.25C206.57,161.75,207.24,153.35,205.79,144.89z"/>
	<path class="st0" d="M148.35,460.7c-0.25-4.05,16.24-27.55,22.28-31.77c12.65,10,27.25,7.58,42.58,5.6
		c-2.01,21.8-2.84,43.51-4.42,65.61C187.63,488.1,168.71,473.56,148.35,460.7z"/>
	<path class="st0" d="M196.08,136.8c-7.18,9.08-13.38,18.91-21.72,28.03c-12.4-7.24-23.4-16.9-35.63-24.95
		c13.89-20.2,28.9-38.61,43.81-58.67c6.6,10.69,12.24,21.18,17.5,31.89C197.78,120.85,195.58,128.6,196.08,136.8z"/>
	<path class="st1" d="M65.55,102.13c11.28,8.39,22.23,15.72,32.67,24.38c-7.41,12.38-14.65,24.48-21.84,36.5
		c-0.98-0.22-1.53-0.2-1.92-0.44c-9.43-5.69-12.07-5.14-18.31,3.8c-2.45,3.51-4.97,6.98-7.56,10.63
		c-7.46-3.68-13.56-8.65-20.14-14.05C40.71,142.85,52.82,122.99,65.55,102.13z"/>
	<path class="st0" d="M214.27,351.31c-19.94-7.93-36.61-3.63-51.9,9.29c-4.67-5.55-12.35-6.65-16.85-13.23
		c11.12-16.17,23.97-30.92,35.84-46.58c14.87,10.87,29.13,21.29,43.86,32.06C223.64,340.15,215.89,343.14,214.27,351.31z"/>
	<path class="st0" d="M111.93,324.12c-7.31-7.3-16.79-11.7-25.62-19.33c10.33-16.27,23.22-30.86,34.49-46.86
		c1.07,0.49,2.04,0.78,2.83,1.33c7.75,5.38,14.65,11.32,22.38,16.74c1.11,0.78,3,2,3.21,2.57c-1.56,5.89-6.6,9.38-9.9,14.06
		c-5.46,7.74-12.16,14.51-18.88,21.19C117.24,316.97,113.92,319.99,111.93,324.12z"/>
	<path class="st0" d="M103.34,344.81c5.39,4.04,10.61,8.32,16.37,11.37c-0.16,4.24-35.35,49.91-41.88,54.78
		c-9.88-3.67-16.88-12.02-26.36-16.55c-0.7-1.79-1.71-3.55-1.19-5.66c7.52-5.14,14.59-10.86,21.23-17.07
		c6.06-5.67,12.6-10.73,18.99-15.99C94.83,352.12,99.06,348.43,103.34,344.81z"/>
	<path class="st0" d="M160.95,258.19c-6.99-1.9-11.73-7.28-17.4-11.23c-2.84-1.98-5.65-4.01-8.87-6.3c1.65-4.95,5.56-8.4,8.55-12.43
		c6.17-8.36,12.33-16.73,18.6-25.02c7.31-9.65,14.46-19.44,22.25-28.7c2.87-3.41,4.3-7.87,8.07-10.53
		c2.26,4.23,0.33,8.55-0.16,12.66c-1.19,9.89-2.21,19.92-5.72,29.35c-6.49,17.45-12.87,34.98-23.53,50.49
		C162.25,257.17,161.73,257.81,160.95,258.19z"/>
	<path class="st0" d="M18.26,155.44c-4.18-2.28-7.48-4.64-10.2-7.92c1.1-25.32,6.15-49.57,18.14-73.67
		c9.62,6.97,18.93,13.7,28.99,20.99C42.73,115.29,30.65,135.12,18.26,155.44z"/>
	<path class="st0" d="M206.9,527.31c3.55,0.79,3.97,3.2,3.97,5.84c0.02,18.5,0.45,37.01-0.19,55.48
		c-0.21,5.89,0.62,12.27-2.34,18.56c-14.52-2.5-28.03-6.51-39.34-16.73C181.68,569.33,194.25,548.39,206.9,527.31z"/>
	<path class="st2" d="M205.79,144.89c2.57,0.56,2.01,2.62,2.12,4.38c0.79,13.01-1.72,25.73-3.58,38.48
		c-2.28,15.62-7.9,30.17-13.8,44.8c-4.96,12.29-11.62,23.52-17.61,35.17c-4.88-2.07-9.71-4.19-11.96-9.54
		c2.9-5.33,5.35-10.99,8.82-15.91c3.83-5.42,5.18-11.77,7.95-17.56c9.17-19.17,12.93-39.7,14.41-60.74"/>
	<path class="st0" d="M162.41,602.06c13.95,8.47,27.79,16.16,43.92,17.14c-0.11,10.47-7.93,35.02-15.08,39
		c-9.27-7.98-20.68-13.27-30.08-21.46c-2.65-2.31-5.59-4.17-8.84-5.54c-4.82-2.03-5.55-3.64-2.85-8.3
		C153.38,616.18,157.65,609.69,162.41,602.06z"/>
	<path class="st0" d="M34.47,63.28c12.34-23.47,44.3-40.81,63.57-38.82C86.08,44.17,74.29,63.59,62.04,83.76
		C52.6,76.99,42.8,71.32,34.47,63.28z"/>
	<path class="st1" d="M17.32,182.5c6.63,3.78,12.28,8.06,18.15,12.78c-3.34,4.53-6.56,8.68-9.54,12.99
		c-5.35,7.73-4.16,13.26,3.69,18.31c1.91,1.23,4.47,1.57,5.88,4.54c-4.02,8.48-11.01,15.63-14.2,24.85
		c-5.33-0.41-8.08-3.62-11.51-6.51c-1.42-15.38-4.58-30.9-3.72-46.5C6.49,195.39,11.67,188.66,17.32,182.5z"/>
	<path class="st0" d="M45.39,630.84c21.48,14.85,42.35,29.27,64.17,44.35c-10.37,3.89-20.66,5.82-29.67,10.1
		C61.26,673.17,45.82,645.58,45.39,630.84z"/>
	<path class="st0" d="M230.25,239.72c1.14,22.65,0.23,44.8-2.82,68.13c-11.14-8.14-22.2-14.82-31.98-24.05
		C206.54,268.41,218.17,253.93,230.25,239.72z"/>
	<path class="st0" d="M18.55,282.89c14.94,10.86,29.03,21.1,43.85,31.87c-7.74,8.97-13.31,19.67-22.73,28.98
		C34.02,322.93,22.3,305.43,18.55,282.89z"/>
	<path class="st0" d="M90.97,340.48C78,351.38,65.26,362.56,52,373.11c-0.89,0.71-1.77,1.61-3.1,0.97
		c-2.81-5.03-3.76-10.48-3.92-15.84c9.05-12.07,17.86-23.82,26.71-35.62c7.6,3.43,13,8.63,19.09,12.8L94,338l1,1L90.97,340.48z"/>
	<path class="st2" d="M94.78,338.75c1.3,0.53,2.92,1.33,4.63,2.54c1.71,1.21,3,2.47,3.94,3.52c-1.98,5.2-6.99,7.41-10.83,10.7
		c-8.78,7.5-17.91,14.57-26.31,22.53c-3.68,3.49-8.35,5.88-11.71,9.83c-1.09,1.28-2.71,1.05-4.21,0.89
		c-0.41-4.9-1.82-9.7-1.39-14.68c9.59-7.71,19.23-15.59,28.92-23.65c4.8-4,9.56-7.99,14.27-11.97c0.15-0.14,0.46-0.39,0.92-0.46
		C94.01,337.84,94.73,338.7,94.78,338.75z"/>
	<path class="st0" d="M159.31,284.78c3.81,2.86,7.63,5.72,11.7,8.77c-11.36,15.84-23.61,30.65-35.74,45.93
		c-6.27-2.26-10.68-6.5-15.42-10.21c7.12-5.39,13.17-11.91,19.26-18.37c6.7-7.1,11.96-15.33,17.79-23.11
		C157.67,286.76,157.88,285.28,159.31,284.78z"/>
	<path class="st2" d="M149.2,278.57c-3.84,4.77-7.77,9.46-11.49,14.32c-6.96,9.09-15.08,17.1-23.19,25.11
		c-1.81,1.79-2.78,3.63-2.59,6.12c2.07,0.88,5.5,3.09,7.91,5.15c1.66-0.25,3.06-0.85,4.42-2c12.86-10.87,23.1-24.02,32.91-37.56
		c1.1-1.52,1.99-3.04,2.13-4.93"/>
	<path class="st2" d="M147.71,276.2"/>
	<path class="st0" d="M45.52,522.12c8.73,5.86,16.56,11.1,25.14,16.86c-9.16,12.26-18.04,24.16-26.93,36.06
		c-0.46-0.16-0.92-0.33-1.38-0.49C42.29,557.51,44.26,540.58,45.52,522.12z"/>
	<path class="st0" d="M164.89,685.96c-15.63,15.53-52,18.1-69.62,7.86C101.48,687.04,153.76,680.99,164.89,685.96z"/>
	<path class="st0" d="M157.31,93.22c-3.28-17.12-3.82-33.36-6.11-50.63c10.72,7.5,17.14,17.35,24.47,26.84
		C169.51,77.41,163.7,84.93,157.31,93.22z"/>
	<path class="st0" d="M51.78,421.9c6.31,0.69,9.65,4.01,13.21,7.71c-3.57,5.77-8.97,9.7-12.89,15.16
		C51.31,437.22,52.63,429.96,51.78,421.9z"/>
	<path class="st2" d="M192,142c-2.06-2.45,1.29-10.37,2-13c1.43-5.31,1.78-11.45,6.05-15.9c4.76,5.64-0.1,17.21-4.05,23.9
		C194.53,139.49,192.25,141.52,192,142z"/>
</g>
<path class="st2" d="M92,338"/>
<path class="st0" d="M159,285"/>
</svg>
